<?xml version="1.0" encoding="UTF-8"?>
<svg xmlns="http://www.w3.org/2000/svg" width="155.12" height="31" viewBox="0 0 155.12 31">
  <g id="logo" transform="translate(-488 -189)">
    <g id="Group_62" data-name="Group 62" transform="translate(0 10)">
      <rect id="Rectangle_19" data-name="Rectangle 19" width="31" height="31" transform="translate(488 179)" fill="#f26c4f"></rect>
      <path id="Path_122" data-name="Path 122" d="M1.131-10.964h8.01v-1.172c-1.9,0-2.076-.293-2.076-2.1v-11.8c0-1.832.171-2.1,2.076-2.1v-1.2H1.131v1.2c1.9,0,2.076.269,2.076,2.1v11.8c0,1.807-.171,2.1-2.076,2.1Z" transform="translate(498.535 214.697)" fill="#fff" stroke="#f5f5f5" stroke-width="1"></path>
    </g>
    <path id="Path_123" data-name="Path 123" d="M4.6-14.14V0H1.18V-14.14Zm6.82,2.84a5.12,5.12,0,0,1,3.39,1.06,4.606,4.606,0,0,1,1.59,2.8H13.2a1.773,1.773,0,0,0-.63-1.07,1.913,1.913,0,0,0-1.23-.39,1.345,1.345,0,0,0-.88.25.872.872,0,0,0-.3.71.833.833,0,0,0,.55.78,8.77,8.77,0,0,0,1.73.52,17.18,17.18,0,0,1,2.1.61,3.464,3.464,0,0,1,1.42,1.01,2.791,2.791,0,0,1,.6,1.88,2.883,2.883,0,0,1-.52,1.7,3.424,3.424,0,0,1-1.5,1.16,5.861,5.861,0,0,1-2.32.42,5.974,5.974,0,0,1-3.62-1A4.219,4.219,0,0,1,6.94-3.72h3.3a1.485,1.485,0,0,0,.61,1.1,2.3,2.3,0,0,0,1.37.38,1.275,1.275,0,0,0,.88-.27.91.91,0,0,0,.3-.71.854.854,0,0,0-.55-.83,10.113,10.113,0,0,0-1.79-.53,14.313,14.313,0,0,1-2.04-.56,3.368,3.368,0,0,1-1.38-.97,2.7,2.7,0,0,1-.58-1.83A2.986,2.986,0,0,1,8.2-10.37,4.968,4.968,0,0,1,11.42-11.3Zm14.52.02A3.863,3.863,0,0,1,28.99-10a5.134,5.134,0,0,1,1.13,3.52V0H26.7V-6.08a2.46,2.46,0,0,0-.59-1.75,2.049,2.049,0,0,0-1.57-.63,2.137,2.137,0,0,0-1.65.66,2.67,2.67,0,0,0-.61,1.88V0H18.86V-14.8h3.42v5.68a3.681,3.681,0,0,1,1.43-1.58A4.2,4.2,0,0,1,25.94-11.28Zm11.08-.02a4.04,4.04,0,0,1,2.2.58,3.487,3.487,0,0,1,1.36,1.58v-2.02h3.4V0h-3.4V-2.02A3.487,3.487,0,0,1,39.22-.44a4.04,4.04,0,0,1-2.2.58,4.52,4.52,0,0,1-2.47-.69,4.721,4.721,0,0,1-1.72-1.99,6.9,6.9,0,0,1-.63-3.04,6.881,6.881,0,0,1,.63-3.05,4.732,4.732,0,0,1,1.72-1.98A4.52,4.52,0,0,1,37.02-11.3Zm1.1,3a2.3,2.3,0,0,0-1.77.72,2.823,2.823,0,0,0-.67,2,2.823,2.823,0,0,0,.67,2,2.3,2.3,0,0,0,1.77.72,2.312,2.312,0,0,0,1.77-.74,2.787,2.787,0,0,0,.69-1.98,2.779,2.779,0,0,0-.69-1.99A2.328,2.328,0,0,0,38.12-8.3Zm24.12-5.8V0H60.4V-6.52H53.24V0H51.42V-14.1h1.82V-8H60.4v-6.1Zm7.82,2.98a4.512,4.512,0,0,1,2.71.8,4.169,4.169,0,0,1,1.55,2.14v-2.8h1.82V0H74.32V-2.8A4.169,4.169,0,0,1,72.77-.66a4.512,4.512,0,0,1-2.71.8,4.977,4.977,0,0,1-2.6-.68,4.7,4.7,0,0,1-1.79-1.95,6.482,6.482,0,0,1-.65-2.99,6.544,6.544,0,0,1,.65-3,4.69,4.69,0,0,1,1.79-1.96A4.977,4.977,0,0,1,70.06-11.12Zm.52,1.62a3.525,3.525,0,0,0-2.69,1.07,4.125,4.125,0,0,0-1.01,2.95,4.125,4.125,0,0,0,1.01,2.95,3.525,3.525,0,0,0,2.69,1.07,3.734,3.734,0,0,0,1.93-.5,3.481,3.481,0,0,0,1.33-1.41,4.457,4.457,0,0,0,.48-2.11,4.517,4.517,0,0,0-.48-2.12,3.4,3.4,0,0,0-1.33-1.41A3.794,3.794,0,0,0,70.58-9.5Zm12.3-1.62a4.431,4.431,0,0,1,2.99.97,4.086,4.086,0,0,1,1.37,2.61H85.5a2.52,2.52,0,0,0-.81-1.61,2.638,2.638,0,0,0-1.85-.63,2.282,2.282,0,0,0-1.53.47,1.584,1.584,0,0,0-.55,1.27,1.312,1.312,0,0,0,.37.97,2.374,2.374,0,0,0,.92.56,15.348,15.348,0,0,0,1.51.41,14.834,14.834,0,0,1,1.97.57,3.086,3.086,0,0,1,1.28.93,2.613,2.613,0,0,1,.53,1.72A2.7,2.7,0,0,1,86.33-.7a4.072,4.072,0,0,1-2.69.84,5.153,5.153,0,0,1-3.2-.94,3.749,3.749,0,0,1-1.46-2.62h1.76a2.292,2.292,0,0,0,.87,1.62,3.139,3.139,0,0,0,2.03.62,2.11,2.11,0,0,0,1.47-.48,1.619,1.619,0,0,0,.53-1.26,1.378,1.378,0,0,0-.38-1.02,2.492,2.492,0,0,0-.94-.58,13.748,13.748,0,0,0-1.54-.42,15.029,15.029,0,0,1-1.95-.56,2.988,2.988,0,0,1-1.24-.89,2.492,2.492,0,0,1-.51-1.65,2.762,2.762,0,0,1,1.02-2.23A4.21,4.21,0,0,1,82.88-11.12Zm11.8,0a4.512,4.512,0,0,1,2.71.8,4.169,4.169,0,0,1,1.55,2.14v-2.8h1.82V0H98.94V-2.8A4.169,4.169,0,0,1,97.39-.66a4.512,4.512,0,0,1-2.71.8,4.977,4.977,0,0,1-2.6-.68,4.7,4.7,0,0,1-1.79-1.95,6.482,6.482,0,0,1-.65-2.99,6.544,6.544,0,0,1,.65-3,4.69,4.69,0,0,1,1.79-1.96A4.977,4.977,0,0,1,94.68-11.12ZM95.2-9.5a3.525,3.525,0,0,0-2.69,1.07A4.125,4.125,0,0,0,91.5-5.48a4.125,4.125,0,0,0,1.01,2.95A3.525,3.525,0,0,0,95.2-1.46a3.734,3.734,0,0,0,1.93-.5,3.481,3.481,0,0,0,1.33-1.41,4.457,4.457,0,0,0,.48-2.11,4.517,4.517,0,0,0-.48-2.12,3.4,3.4,0,0,0-1.33-1.41A3.794,3.794,0,0,0,95.2-9.5Zm14.64-1.66a4.1,4.1,0,0,1,3.1,1.23,4.929,4.929,0,0,1,1.18,3.55V0H112.3V-6.22a3.508,3.508,0,0,0-.84-2.52,3,3,0,0,0-2.28-.88,3.117,3.117,0,0,0-2.4.97,4.018,4.018,0,0,0-.9,2.83V0h-1.82V-10.98h1.82v2.6a3.74,3.74,0,0,1,1.49-2.06A4.32,4.32,0,0,1,109.84-11.16Z" transform="translate(529 212)" fill="#fff"></path>
  </g>
</svg>
